<mxfile host="app.diagrams.net" agent="Mozilla/5.0 (X11; Ubuntu; Linux x86_64; rv:134.0) Gecko/20100101 Firefox/134.0" version="26.0.7">
  <diagram name="Page-1" id="Zr7cRRr_BbZi17oIqYh_">
    <mxGraphModel dx="1436" dy="837" grid="1" gridSize="10" guides="1" tooltips="1" connect="1" arrows="1" fold="1" page="1" pageScale="1" pageWidth="3300" pageHeight="4681" math="0" shadow="0">
      <root>
        <mxCell id="0" />
        <mxCell id="1" parent="0" />
        <mxCell id="RQFeXoRfa1TGDBpCitTY-1" value="کاربر روی گزینه ثبت نظر کلیک میکند" style="rounded=1;whiteSpace=wrap;html=1;fillColor=#f5f5f5;gradientColor=#b3b3b3;strokeColor=#666666;" vertex="1" parent="1">
          <mxGeometry x="620" y="220" width="120" height="60" as="geometry" />
        </mxCell>
        <mxCell id="RQFeXoRfa1TGDBpCitTY-2" value="" style="endArrow=classic;html=1;rounded=0;exitX=0.5;exitY=1;exitDx=0;exitDy=0;" edge="1" parent="1">
          <mxGeometry width="50" height="50" relative="1" as="geometry">
            <mxPoint x="679.7" y="180" as="sourcePoint" />
            <mxPoint x="679.7" y="220" as="targetPoint" />
          </mxGeometry>
        </mxCell>
        <mxCell id="RQFeXoRfa1TGDBpCitTY-3" value="" style="endArrow=classic;html=1;rounded=0;exitX=0.5;exitY=1;exitDx=0;exitDy=0;" edge="1" parent="1">
          <mxGeometry width="50" height="50" relative="1" as="geometry">
            <mxPoint x="679.6200000000001" y="280" as="sourcePoint" />
            <mxPoint x="679.6200000000001" y="320" as="targetPoint" />
          </mxGeometry>
        </mxCell>
        <mxCell id="RQFeXoRfa1TGDBpCitTY-4" value="" style="ellipse;whiteSpace=wrap;html=1;aspect=fixed;fillColor=light-dark(#464a4e, #7d8c9b);strokeColor=#314354;fontColor=#ffffff;" vertex="1" parent="1">
          <mxGeometry x="655.1600000000001" y="130" width="50" height="50" as="geometry" />
        </mxCell>
        <mxCell id="RQFeXoRfa1TGDBpCitTY-9" style="edgeStyle=orthogonalEdgeStyle;rounded=0;orthogonalLoop=1;jettySize=auto;html=1;exitX=0.5;exitY=1;exitDx=0;exitDy=0;entryX=0.5;entryY=0;entryDx=0;entryDy=0;" edge="1" parent="1" source="RQFeXoRfa1TGDBpCitTY-5" target="RQFeXoRfa1TGDBpCitTY-8">
          <mxGeometry relative="1" as="geometry" />
        </mxCell>
        <mxCell id="RQFeXoRfa1TGDBpCitTY-5" value="بخشی برای ثبت نظر ظاهر میشود" style="rounded=1;whiteSpace=wrap;html=1;fillColor=#f5f5f5;gradientColor=#b3b3b3;strokeColor=#666666;" vertex="1" parent="1">
          <mxGeometry x="730" y="370" width="120" height="60" as="geometry" />
        </mxCell>
        <mxCell id="RQFeXoRfa1TGDBpCitTY-6" value="" style="html=1;points=[];perimeter=orthogonalPerimeter;fillColor=strokeColor;direction=south;" vertex="1" parent="1">
          <mxGeometry x="510" y="320" width="340" height="5" as="geometry" />
        </mxCell>
        <mxCell id="RQFeXoRfa1TGDBpCitTY-7" value="" style="endArrow=classic;html=1;rounded=0;exitX=0.8;exitY=0.197;exitDx=0;exitDy=0;exitPerimeter=0;" edge="1" parent="1" source="RQFeXoRfa1TGDBpCitTY-6">
          <mxGeometry width="50" height="50" relative="1" as="geometry">
            <mxPoint x="780" y="330" as="sourcePoint" />
            <mxPoint x="784" y="370" as="targetPoint" />
          </mxGeometry>
        </mxCell>
        <mxCell id="RQFeXoRfa1TGDBpCitTY-11" style="edgeStyle=orthogonalEdgeStyle;rounded=0;orthogonalLoop=1;jettySize=auto;html=1;exitX=0.5;exitY=1;exitDx=0;exitDy=0;" edge="1" parent="1" source="RQFeXoRfa1TGDBpCitTY-8" target="RQFeXoRfa1TGDBpCitTY-10">
          <mxGeometry relative="1" as="geometry" />
        </mxCell>
        <mxCell id="RQFeXoRfa1TGDBpCitTY-8" value="کاربر نظر خود را در این بخش وارد میکند" style="rounded=1;whiteSpace=wrap;html=1;fillColor=#f5f5f5;gradientColor=#b3b3b3;strokeColor=#666666;" vertex="1" parent="1">
          <mxGeometry x="730" y="460" width="120" height="60" as="geometry" />
        </mxCell>
        <mxCell id="RQFeXoRfa1TGDBpCitTY-10" value="کاربر روی گزینه تایید کلیک میکند" style="rounded=1;whiteSpace=wrap;html=1;fillColor=#f5f5f5;gradientColor=#b3b3b3;strokeColor=#666666;" vertex="1" parent="1">
          <mxGeometry x="730" y="550" width="120" height="60" as="geometry" />
        </mxCell>
        <mxCell id="RQFeXoRfa1TGDBpCitTY-15" style="edgeStyle=orthogonalEdgeStyle;rounded=0;orthogonalLoop=1;jettySize=auto;html=1;exitX=0.5;exitY=1;exitDx=0;exitDy=0;entryX=0.5;entryY=0;entryDx=0;entryDy=0;" edge="1" parent="1" source="RQFeXoRfa1TGDBpCitTY-12" target="RQFeXoRfa1TGDBpCitTY-14">
          <mxGeometry relative="1" as="geometry" />
        </mxCell>
        <mxCell id="RQFeXoRfa1TGDBpCitTY-12" value="بخشی برای امتیازدهی ظاهر میشود" style="rounded=1;whiteSpace=wrap;html=1;fillColor=#f5f5f5;gradientColor=#b3b3b3;strokeColor=#666666;" vertex="1" parent="1">
          <mxGeometry x="510" y="370" width="120" height="60" as="geometry" />
        </mxCell>
        <mxCell id="RQFeXoRfa1TGDBpCitTY-13" value="" style="endArrow=classic;html=1;rounded=0;exitX=1.067;exitY=0.844;exitDx=0;exitDy=0;exitPerimeter=0;entryX=0.442;entryY=-0.033;entryDx=0;entryDy=0;entryPerimeter=0;" edge="1" parent="1" source="RQFeXoRfa1TGDBpCitTY-6" target="RQFeXoRfa1TGDBpCitTY-12">
          <mxGeometry width="50" height="50" relative="1" as="geometry">
            <mxPoint x="830" y="580" as="sourcePoint" />
            <mxPoint x="880" y="530" as="targetPoint" />
          </mxGeometry>
        </mxCell>
        <mxCell id="RQFeXoRfa1TGDBpCitTY-17" style="edgeStyle=orthogonalEdgeStyle;rounded=0;orthogonalLoop=1;jettySize=auto;html=1;exitX=0.5;exitY=1;exitDx=0;exitDy=0;entryX=0.5;entryY=0;entryDx=0;entryDy=0;" edge="1" parent="1" source="RQFeXoRfa1TGDBpCitTY-14" target="RQFeXoRfa1TGDBpCitTY-16">
          <mxGeometry relative="1" as="geometry" />
        </mxCell>
        <mxCell id="RQFeXoRfa1TGDBpCitTY-14" value="کاربر وکیل/عریضه نویس موردنظر خود را انتخاب میکند" style="rounded=1;whiteSpace=wrap;html=1;fillColor=#f5f5f5;gradientColor=#b3b3b3;strokeColor=#666666;" vertex="1" parent="1">
          <mxGeometry x="510" y="470" width="120" height="60" as="geometry" />
        </mxCell>
        <mxCell id="RQFeXoRfa1TGDBpCitTY-19" style="edgeStyle=orthogonalEdgeStyle;rounded=0;orthogonalLoop=1;jettySize=auto;html=1;exitX=0.5;exitY=1;exitDx=0;exitDy=0;entryX=0.5;entryY=0;entryDx=0;entryDy=0;" edge="1" parent="1" source="RQFeXoRfa1TGDBpCitTY-16" target="RQFeXoRfa1TGDBpCitTY-18">
          <mxGeometry relative="1" as="geometry" />
        </mxCell>
        <mxCell id="RQFeXoRfa1TGDBpCitTY-16" value="کاربر امتیاز مربوطه را وارد میکند" style="rounded=1;whiteSpace=wrap;html=1;fillColor=#f5f5f5;gradientColor=#b3b3b3;strokeColor=#666666;" vertex="1" parent="1">
          <mxGeometry x="510" y="550" width="120" height="60" as="geometry" />
        </mxCell>
        <mxCell id="RQFeXoRfa1TGDBpCitTY-18" value="امتیاز داده شده در پروفایل وکیل / عریضه نویس اعمال میشود" style="rounded=1;whiteSpace=wrap;html=1;fillColor=#f5f5f5;gradientColor=#b3b3b3;strokeColor=#666666;" vertex="1" parent="1">
          <mxGeometry x="510" y="640" width="120" height="60" as="geometry" />
        </mxCell>
        <mxCell id="RQFeXoRfa1TGDBpCitTY-20" value="" style="html=1;points=[];perimeter=orthogonalPerimeter;fillColor=strokeColor;direction=south;" vertex="1" parent="1">
          <mxGeometry x="490" y="770" width="400" height="7.5" as="geometry" />
        </mxCell>
        <mxCell id="RQFeXoRfa1TGDBpCitTY-22" style="edgeStyle=orthogonalEdgeStyle;rounded=0;orthogonalLoop=1;jettySize=auto;html=1;exitX=0.5;exitY=1;exitDx=0;exitDy=0;entryX=0.156;entryY=0.801;entryDx=0;entryDy=0;entryPerimeter=0;" edge="1" parent="1" source="RQFeXoRfa1TGDBpCitTY-18" target="RQFeXoRfa1TGDBpCitTY-20">
          <mxGeometry relative="1" as="geometry" />
        </mxCell>
        <mxCell id="RQFeXoRfa1TGDBpCitTY-23" style="edgeStyle=orthogonalEdgeStyle;rounded=0;orthogonalLoop=1;jettySize=auto;html=1;exitX=0.5;exitY=1;exitDx=0;exitDy=0;entryX=0.156;entryY=0.251;entryDx=0;entryDy=0;entryPerimeter=0;" edge="1" parent="1" source="RQFeXoRfa1TGDBpCitTY-10" target="RQFeXoRfa1TGDBpCitTY-20">
          <mxGeometry relative="1" as="geometry" />
        </mxCell>
        <mxCell id="RQFeXoRfa1TGDBpCitTY-28" style="edgeStyle=orthogonalEdgeStyle;rounded=0;orthogonalLoop=1;jettySize=auto;html=1;exitX=0.5;exitY=1;exitDx=0;exitDy=0;entryX=0.5;entryY=0;entryDx=0;entryDy=0;" edge="1" parent="1" source="RQFeXoRfa1TGDBpCitTY-24" target="RQFeXoRfa1TGDBpCitTY-26">
          <mxGeometry relative="1" as="geometry" />
        </mxCell>
        <mxCell id="RQFeXoRfa1TGDBpCitTY-24" value="نظرات و امتیازات ثبت نهایی میشود" style="rounded=1;whiteSpace=wrap;html=1;fillColor=#f5f5f5;gradientColor=#b3b3b3;strokeColor=#666666;" vertex="1" parent="1">
          <mxGeometry x="620" y="890" width="120" height="60" as="geometry" />
        </mxCell>
        <mxCell id="RQFeXoRfa1TGDBpCitTY-25" value="" style="endArrow=classic;html=1;rounded=0;exitX=1.044;exitY=0.528;exitDx=0;exitDy=0;exitPerimeter=0;entryX=0.5;entryY=0;entryDx=0;entryDy=0;" edge="1" parent="1" source="RQFeXoRfa1TGDBpCitTY-20" target="RQFeXoRfa1TGDBpCitTY-24">
          <mxGeometry width="50" height="50" relative="1" as="geometry">
            <mxPoint x="520" y="970" as="sourcePoint" />
            <mxPoint x="570" y="920" as="targetPoint" />
          </mxGeometry>
        </mxCell>
        <mxCell id="RQFeXoRfa1TGDBpCitTY-26" value="" style="ellipse;whiteSpace=wrap;html=1;aspect=fixed;" vertex="1" parent="1">
          <mxGeometry x="650" y="1030" width="60" height="60" as="geometry" />
        </mxCell>
        <mxCell id="RQFeXoRfa1TGDBpCitTY-27" value="" style="ellipse;whiteSpace=wrap;html=1;aspect=fixed;fillColor=#647687;fontColor=#ffffff;strokeColor=#314354;" vertex="1" parent="1">
          <mxGeometry x="660" y="1040" width="40" height="40" as="geometry" />
        </mxCell>
      </root>
    </mxGraphModel>
  </diagram>
</mxfile>
